HIERARCHY
ROOT Hips
{
	OFFSET -10.056300 7.733760 -472.550000
	CHANNELS 6 Xposition Yposition Zposition Zrotation Yrotation Xrotation 
	JOINT Spine
	{
		OFFSET 0.000000 0.000000 0.000000
		CHANNELS 3 Zrotation Yrotation Xrotation
		JOINT Spine1
		{
			OFFSET 19.000000 0.000000 0.000000
			CHANNELS 3 Zrotation Yrotation Xrotation
			JOINT Neck
			{
				OFFSET 22.500000 0.600000 0.000000
				CHANNELS 3 Zrotation Yrotation Xrotation
				JOINT Head
				{
					OFFSET 14.000000 0.030878 0.000000
					CHANNELS 3 Zrotation Yrotation Xrotation
					End Site
					{
						OFFSET 17.000000 0.000000 0.000000
					}
				}
			}
			JOINT LeftShoulder
			{
				OFFSET 19.800000 3.700000 4.300000
				CHANNELS 3 Zrotation Yrotation Xrotation
				JOINT LeftArm
				{
					OFFSET 8.000000 0.000000 0.000000
					CHANNELS 3 Zrotation Yrotation Xrotation
					JOINT LeftForeArm
					{
						OFFSET 15.200000 0.000000 0.000000
						CHANNELS 3 Zrotation Yrotation Xrotation
						JOINT LeftHand
						{
							OFFSET 17.800000 0.000000 0.000000
							CHANNELS 3 Zrotation Yrotation Xrotation
							End Site
							{
								OFFSET 7.200000 0.000000 0.000000
							}
						}
					}
				}
			}
			JOINT RightShoulder
			{
				OFFSET 19.800000 3.700000 -4.300000
				CHANNELS 3 Zrotation Yrotation Xrotation
				JOINT RightArm
				{
					OFFSET 8.000000 0.000000 0.151654
					CHANNELS 3 Zrotation Yrotation Xrotation
					JOINT RightForeArm
					{
						OFFSET 15.200000 0.000000 0.000000
						CHANNELS 3 Zrotation Yrotation Xrotation
						JOINT RightHand
						{
							OFFSET 17.800000 0.000000 0.000000
							CHANNELS 3 Zrotation Yrotation Xrotation
							End Site
							{
								OFFSET 7.200000 0.000000 0.000000
							}
						}
					}
				}
			}
		}
	}
	JOINT LeftUpLeg
	{
		OFFSET 5.984250 -7.666000 4.788790
		CHANNELS 3 Zrotation Yrotation Xrotation
		JOINT LeftLeg
		{
			OFFSET 16.000000 0.000000 0.000000
			CHANNELS 3 Zrotation Yrotation Xrotation
			JOINT LeftFoot
			{
				OFFSET 18.000000 0.000000 0.000000
				CHANNELS 3 Zrotation Yrotation Xrotation
				End Site
				{
					OFFSET 0.000000 -10.800000 0.000000
				}
			}
		}
	}
	JOINT RightUpLeg
	{
		OFFSET 5.984250 -7.665980 -4.788790
		CHANNELS 3 Zrotation Yrotation Xrotation
		JOINT RightLeg
		{
			OFFSET 16.000000 0.000000 0.000000
			CHANNELS 3 Zrotation Yrotation Xrotation
			JOINT RightFoot
			{
				OFFSET 18.000000 0.000000 0.000000
				CHANNELS 3 Zrotation Yrotation Xrotation
				End Site
				{
					OFFSET 0.000000 -10.800000 0.000000
				}
			}
		}
	}
	JOINT Tail
	{
		OFFSET 6.836960 -0.722574 0.000000
		CHANNELS 3 Zrotation Yrotation Xrotation
		JOINT Tail1
		{
			OFFSET 12.000000 0.000000 0.000000
			CHANNELS 3 Zrotation Yrotation Xrotation
			End Site
			{
				OFFSET 12.000000 0.000000 0.000000
			}
		}
	}
}
MOTION
Frames: 16
Frame Time: 0.033333
-8851.306641 -8536.499023 -2328.856445 20.737614 -11.025444 65.761276 -140.577286 -14.120605 4.116073 -127.366943 19.463696 -34.528160 -24.737082 2.780816 5.554048 -3.050136 4.458341 -179.395706 -90.309990 52.343960 119.380226 -31.008545 -45.533672 134.338821 -136.580750 -40.176559 -148.308594 -151.203857 18.394886 -155.085526 173.938736 -0.413727 -178.061951 -64.408585 -22.036457 121.694351 170.158432 -56.179756 -71.684456 141.191864 4.788360 -43.535721 -148.923416 -48.633648 -3.273491 117.494202 -50.238663 53.736488 136.666641 -49.228012 -124.329269 -160.115875 -0.550062 1.327468 113.911186 -17.213625 -106.391640 -18.241297 11.973789 24.334316 -156.051804 -68.135994 25.322880 -1.415991 2.699794 -129.713745 
-18732.152344 -17055.212891 -4622.060547 19.660997 -9.522451 64.961205 -140.012253 -14.211245 4.036377 -127.739708 19.089043 -34.274651 -24.818930 2.748497 5.555833 -2.595087 5.042964 -179.274963 -94.351501 56.814003 113.561974 -27.396006 -44.226189 132.961029 -137.530319 -42.315384 -147.528122 -151.902161 18.574339 -160.361191 172.105560 0.250577 -177.711548 -64.668221 -22.607691 119.859421 161.101471 -51.300980 -62.859859 139.951126 2.094512 -47.515255 -146.695923 -48.071823 -4.053607 108.721207 -50.013721 50.687511 135.244034 -51.561394 -124.628433 -159.720398 0.241111 1.458400 113.362541 -15.515211 -106.801628 -15.163648 10.401594 27.366962 171.966858 -62.238571 53.859219 -2.403170 3.053980 -123.872154 
-32540.755859 -20260.855469 -7200.886719 17.664135 -9.494922 64.800873 -139.542435 -14.307423 3.972075 -128.033112 18.712841 -33.914925 -24.782976 2.796513 5.664629 -1.997408 5.641046 -178.588959 -95.773209 57.306042 107.663071 -23.775347 -42.971436 132.278015 -141.537460 -41.696846 -142.902557 -153.490036 18.448435 -170.034760 169.641205 1.428986 -178.803864 -64.944450 -22.827936 117.365265 146.940796 -44.787098 -46.318592 137.637497 -2.420835 -53.121719 -144.404648 -47.184078 -4.862277 101.820404 -50.534622 46.122066 134.152344 -51.771812 -122.573189 -160.570312 0.559151 0.842668 106.843040 -16.057304 -104.283073 -24.070972 8.862038 26.999756 156.206970 -53.217213 66.648918 -3.642412 2.353591 -118.728844 
-52164.921875 -16348.108398 -10336.330078 15.814624 -10.459857 64.609291 -139.251221 -14.408510 3.934488 -128.188293 18.394753 -33.500423 -24.689974 2.992638 5.897965 -1.177438 6.181281 -177.353714 -92.724205 56.143253 103.971207 -21.116295 -42.067970 132.826828 -148.203217 -37.753525 -134.306107 -155.928833 17.152620 176.444794 167.554947 3.140050 -179.991287 -65.243149 -22.679928 115.117111 136.463699 -37.505577 -31.462690 136.633453 -6.004581 -56.255718 -141.247696 -46.339882 -6.625031 100.092514 -50.951412 41.150139 133.550369 -50.222637 -118.493118 -161.059021 -0.287086 -0.269851 95.654274 -18.417643 -100.153145 -44.064434 7.524007 23.955484 148.766891 -46.935753 71.729988 -4.845012 0.428466 -115.785385 
-74252.835938 -15064.601562 -12617.304688 14.786551 -11.856941 63.005501 -139.198547 -14.506825 3.926011 -128.179291 18.188343 -33.103302 -24.653772 3.270935 6.207510 -0.316283 6.302092 -175.986160 -86.274582 54.358406 101.169067 -20.059904 -41.297913 134.722763 -155.189102 -28.733490 -124.091965 -158.329987 14.447629 161.573563 166.483734 5.270026 179.362061 -66.272301 -22.255926 114.151436 132.178543 -35.492664 -24.035004 137.619919 -5.841018 -53.696999 -137.140869 -45.502888 -9.169515 104.449425 -51.325706 36.704834 133.192108 -47.879662 -113.058655 -160.212189 -2.070193 -2.061965 83.672226 -20.497807 -94.802498 -65.331512 6.093833 20.809525 143.158890 -44.764439 75.200508 -6.211839 -2.530651 -114.687759 
-95350.171875 -18302.279297 -14315.304688 14.795428 -12.594603 61.261944 -139.370407 -14.596349 3.932617 -128.053253 18.127851 -32.788940 -24.746489 3.554471 6.518621 0.449433 5.964505 -174.828552 -78.296486 54.220970 98.351257 -21.133305 -41.125835 137.276642 -159.171555 -15.213043 -116.874924 -159.903763 11.382312 150.106613 166.408554 7.754823 179.720047 -68.300888 -21.807505 115.007645 136.139450 -41.656837 -27.881603 139.913300 -2.081116 -45.306965 -132.261993 -44.823364 -12.736883 116.043312 -51.623528 31.816143 133.329620 -45.743969 -108.007690 -157.706085 -4.511446 -4.284955 74.661995 -22.107082 -89.495728 -79.065353 5.339029 19.371822 136.961105 -46.688976 79.899452 -7.525064 -5.738008 -115.159904 
-114040.281250 -19267.164062 -16645.152344 15.163540 -11.613218 58.343712 -139.697235 -14.672520 3.952265 -127.869232 18.227631 -32.584789 -25.097513 3.778162 6.787864 1.215922 5.279292 -174.023163 -70.925301 54.410500 97.654587 -23.813374 -41.442459 140.067093 -160.252670 -3.107161 -115.714119 -161.077988 11.172828 146.499512 166.478043 10.159514 -179.770966 -70.632912 -21.700098 117.322975 148.808334 -53.165649 -42.813908 143.071259 3.169180 -34.740833 -128.195587 -43.983364 -16.633623 129.587128 -51.242558 29.018044 133.750320 -44.976105 -105.292076 -153.789139 -7.169316 -6.419930 67.967712 -23.289307 -83.654045 -88.976639 5.777864 18.441557 131.412323 -49.633518 83.012650 -9.176068 -8.683763 -118.036888 
-126323.960938 -18735.082031 -20250.013672 14.743384 -9.761518 55.290588 -140.087128 -14.737316 3.983357 -127.701897 18.473194 -32.519859 -25.563330 3.819237 7.045732 1.496989 4.420530 -173.691742 -64.607727 51.011349 97.668137 -26.469393 -41.371513 142.294113 -161.958221 3.974459 -121.876396 -162.381409 14.562217 148.792282 165.726151 11.784154 178.986664 -72.724037 -22.306082 120.438057 160.961685 -63.641628 -59.002243 144.666565 7.344978 -26.458002 -128.110580 -42.795506 -18.209108 140.237976 -50.941338 29.280214 134.872955 -45.076565 -105.753082 -149.313492 -8.821140 -7.931086 61.727940 -23.560219 -76.812439 -95.778702 7.211393 16.397579 128.477188 -51.679310 82.641579 -11.092669 -11.331053 -123.216835 
-139953.046875 -22497.267578 -25022.328125 12.655018 -8.222643 53.450405 -140.464966 -14.776097 4.021479 -127.580566 18.810984 -32.558739 -25.948004 3.744989 7.252938 1.103559 3.831823 -173.873611 -59.727802 44.221909 96.189934 -28.483620 -40.232887 143.362000 -165.506729 7.063941 -130.440903 -163.408783 17.868572 151.510056 165.026306 12.306297 176.778030 -74.073936 -23.168537 123.160271 149.106476 -72.658035 -50.149925 142.091003 9.366052 -23.540403 -132.979263 -41.995602 -16.276564 144.374039 -51.098915 31.324387 137.086853 -45.341347 -109.179779 -145.038971 -8.927798 -8.961185 57.190010 -22.311459 -71.173050 -97.019707 9.275222 13.605597 127.452209 -55.802017 81.444839 -11.841612 -12.966882 -129.996674 
-154488.546875 -23852.886719 -29081.996094 11.285164 -7.842451 52.035351 -140.753113 -14.789126 4.055269 -127.530678 19.192282 -32.693645 -26.193172 3.701565 7.318749 0.436789 3.491165 -174.504486 -58.575596 35.872662 93.920555 -29.793413 -38.060211 143.943161 -171.433884 9.089827 -136.204025 -165.099274 20.015144 151.095566 165.036377 11.995516 176.028412 -74.626450 -23.233278 125.225777 96.205688 -72.692230 2.514079 136.023346 8.820049 -26.516090 -140.689301 -41.481274 -11.927134 139.704987 -51.604137 35.543556 139.230286 -46.047054 -113.909294 -140.485458 -7.550694 -10.267008 54.893654 -19.383493 -66.927734 -95.321121 11.515093 10.839223 127.102562 -64.320229 81.333405 -11.099916 -12.971423 -137.437912 
-170546.828125 -23482.019531 -32145.185547 11.372652 -8.225007 51.383400 -140.970673 -14.752709 4.091793 -127.529213 19.574362 -32.879204 -26.149900 3.783125 7.147492 -0.741794 3.404685 -175.346771 -59.702045 27.830751 93.997887 -30.938791 -36.148746 144.203552 -178.814240 12.375916 -136.318314 -167.819275 20.578079 147.654510 166.219254 11.841970 178.211151 -74.713364 -22.381926 126.341362 67.648399 -61.112125 34.299191 130.306381 4.967935 -34.767506 -147.327728 -41.180859 -7.804253 125.171432 -51.561005 43.619587 140.270279 -47.235474 -117.460846 -134.961014 -4.773643 -11.497404 57.723846 -15.649055 -66.253395 -90.261803 14.234425 9.052725 129.571243 -77.557159 81.267105 -8.901846 -11.271075 -144.578415 
-187403.484375 -17840.427734 -36513.671875 11.661188 -8.828959 51.133141 -141.142334 -14.660056 4.141806 -127.539268 19.951262 -33.090374 -26.014227 3.992262 6.722072 -2.149592 3.501045 -176.540176 -62.238052 20.541763 95.196724 -32.448429 -35.135784 144.273224 174.081055 19.120089 -132.056046 -170.890793 19.310268 142.490021 168.623383 12.202324 -177.734131 -74.377663 -20.491417 125.985588 58.781418 -50.356976 49.085239 127.361931 -0.620345 -45.110508 -150.991760 -41.255440 -4.924896 105.568413 -50.189724 53.328609 140.125885 -48.196095 -118.479515 -130.483917 -0.871850 -11.867793 65.776390 -10.585052 -69.138588 -79.323387 16.800327 9.714972 -75.263870 -86.399780 -68.650040 -5.992984 -8.729933 -150.104218 
-197411.093750 -10882.952148 -41748.996094 12.366386 -10.133132 49.905087 -141.285995 -14.528998 4.201416 -127.547203 20.339340 -33.320637 -26.071280 4.050723 6.273069 -2.969646 3.108414 -177.750702 -63.800419 15.004984 97.716759 -33.728893 -35.537331 144.687500 169.062302 28.306049 -124.241035 -173.586838 17.125538 137.331635 171.168365 12.981643 -173.983948 -74.036377 -18.092310 124.942360 50.955143 -47.915955 62.741409 129.687607 -3.242462 -52.617096 -151.230148 -41.775738 -3.672108 86.949135 -46.561268 62.878860 138.878784 -49.068066 -117.572205 -129.360596 2.880580 -11.408911 76.326210 -3.904613 -72.606354 -62.195076 17.217001 13.546659 -55.452797 -71.061043 -81.221664 -3.201901 -6.241555 -152.985214 
-208492.343750 -20572.677734 -46621.582031 12.997597 -11.542912 48.403694 -141.427505 -14.381572 4.255198 -127.530556 20.717384 -33.523762 -26.447565 3.785779 5.965864 -3.229175 2.332838 -178.417038 -65.116585 10.429718 101.209084 -34.808098 -37.492832 145.361633 169.733551 36.619068 -110.800285 -174.966644 14.324214 134.428619 173.416397 14.245917 -171.245834 -74.010651 -15.950727 123.914871 37.966908 -52.562344 79.475708 133.928329 -2.202971 -55.869549 -148.210968 -42.773247 -4.664999 73.927856 -41.461845 70.411858 136.721222 -49.320801 -114.446487 -132.731903 5.306663 -10.308646 87.578369 3.149897 -74.414124 -39.841537 14.718669 19.974987 -51.667744 -59.058586 -77.296753 -0.942311 -4.554021 -153.442551 
-220092.968750 -25083.105469 -52327.531250 13.796007 -13.462301 47.547695 -141.540512 -14.248527 4.286257 -127.493340 21.062256 -33.692459 -27.186871 3.293794 5.914602 -2.830728 1.482742 -178.672287 -67.597191 5.457774 103.219498 -35.693913 -39.847740 146.277679 176.945862 39.643188 -94.413437 -174.856445 12.519588 134.352219 173.517426 15.520600 -171.494614 -74.104248 -13.950215 123.665756 24.028454 -59.025639 94.510124 135.839066 -0.637555 -56.704281 -143.618912 -43.732872 -6.880043 67.796822 -37.894920 76.689949 134.434235 -48.151985 -110.012779 -141.563049 6.908071 -8.856212 94.711472 8.532938 -72.804573 -21.467215 10.223886 25.601042 -57.532845 -54.667221 -68.060341 -0.034502 -4.722466 -153.216537 
-232081.765625 -25997.521484 -58045.664062 15.200205 -16.244051 47.681091 -141.602890 -14.147178 4.284931 -127.464081 21.333775 -33.837315 -27.950708 2.734533 6.204182 -1.896379 0.557902 -178.484970 -71.553246 0.025005 106.101913 -36.036442 -41.508053 147.231155 -173.765762 33.096165 -81.627686 -173.469330 12.431015 137.817856 170.013733 16.410511 -175.360245 -74.077507 -12.754199 124.842216 17.114182 -66.470734 99.641487 135.022278 -0.553633 -57.788177 -138.760849 -44.726898 -9.889979 68.474060 -35.386093 83.109871 132.970795 -46.146198 -106.541962 -154.243607 8.113680 -6.909752 96.701454 11.080480 -70.378365 -15.437793 7.634482 29.345360 -75.452736 -55.258480 -52.179535 -0.688676 -6.765111 -154.037857 
